<?xml version="1.0" encoding="UTF-8" standalone="no"?>
<!-- Created with Inkscape (http://www.inkscape.org/) -->

<svg
   width="128mm"
   height="75mm"
   viewBox="0 0 128 75"
   version="1.1"
   id="svg1"
   xml:space="preserve"
   inkscape:export-filename="draconic_flag.svg"
   inkscape:export-xdpi="25.4"
   inkscape:export-ydpi="25.4"
   xmlns:inkscape="http://www.inkscape.org/namespaces/inkscape"
   xmlns:sodipodi="http://sodipodi.sourceforge.net/DTD/sodipodi-0.dtd"
   xmlns="http://www.w3.org/2000/svg"
   xmlns:svg="http://www.w3.org/2000/svg"><sodipodi:namedview
     id="namedview1"
     pagecolor="#505050"
     bordercolor="#eeeeee"
     borderopacity="1"
     inkscape:showpageshadow="0"
     inkscape:pageopacity="0"
     inkscape:pagecheckerboard="0"
     inkscape:deskcolor="#505050"
     inkscape:document-units="mm"
     showguides="true"><inkscape:page
       x="0"
       y="0"
       width="128"
       height="75"
       id="page2"
       margin="0"
       bleed="0" /></sodipodi:namedview><defs
     id="defs1" /><g
     inkscape:label="Layer 1"
     inkscape:groupmode="layer"
     id="layer1"><rect
       style="display:inline;fill:#101234;fill-opacity:1;stroke-width:0.264583"
       id="rect1"
       width="128"
       height="75"
       x="0"
       y="0"
       inkscape:label="bg"
       sodipodi:insensitive="true" /><path
       style="fill:#f0b05d;fill-opacity:1;stroke-width:0.264583"
       d="m 47.578986,0 h 6.641647 C 70.056312,21.106862 68.826367,55.509035 53.044338,72.316418 62.301656,55.90591 69.939376,25.340195 47.578986,0 Z"
       id="path1"
       inkscape:label="path1"
       sodipodi:nodetypes="cccc" /><path
       style="fill:#ec703f;fill-opacity:1;stroke-width:0.264583"
       d="m 36.512499,0 h 6.641647 C 63.35545,18.394884 62.059359,57.294973 41.977851,72.316419 57.982044,55.310598 59.666639,21.371446 36.512499,0 Z"
       id="path1-2"
       inkscape:label="path1"
       sodipodi:nodetypes="cccc" /><path
       style="fill:#b8212e;fill-opacity:1;stroke-width:0.264583"
       d="M 25.666,0.06614544 32.331033,0 C 52.648579,14.259795 58.224318,53.590806 31.131352,72.382564 53.022524,50.746535 51.002952,18.262591 25.666,0.06614544 Z"
       id="path1-2-0"
       inkscape:label="path1"
       sodipodi:nodetypes="cccc" /><path
       style="opacity:1;fill:#f0b05d;fill-opacity:1;stroke-width:0.27568"
       d="m 13.471941,27.571076 c 3.313897,-2.201142 4.685425,-5.377162 5.367697,-9.844425 0.609173,3.557565 -0.462971,7.578304 -3.460098,9.844425 4.223594,2.672236 4.231716,6.708814 4.654076,8.74751 -1.226466,-2.980882 -2.65485,-6.473267 -6.561675,-8.74751 z"
       id="path2"
       sodipodi:nodetypes="ccccc" /><path
       style="opacity:1;fill:#b8212e;fill-opacity:1;stroke-width:0.264583"
       d="M 31.150263,29.606782 C 27.995262,34.744384 25.393504,46.05952 30.5342,50.622157 27.539001,48.471726 19.049971,47.773869 13.30737,50.233307 18.764179,46.214516 23.956403,46.859007 26.998889,47.668862 24.983388,45.266 25.345528,34.356966 31.150263,29.606782 Z"
       id="path3"
       sodipodi:nodetypes="ccccc" /><path
       style="opacity:1;fill:#ec703f;fill-opacity:1;stroke-width:0.264583"
       d="m 11.716427,31.501055 c 3.34421,3.944452 4.279655,9.549316 1.683798,14.148578 3.094758,-0.849693 5.862112,-1.792932 8.863327,-1.660411 -1.855296,-0.795126 -4.412175,-0.841899 -6.57149,-0.374177 1.964431,-5.386594 -0.771742,-9.486954 -3.975635,-12.11399 z"
       id="path4"
       sodipodi:nodetypes="ccccc" /><path
       style="opacity:1;fill:#ec703f;fill-opacity:1;stroke-width:0.264583"
       d="m 27.361968,28.3941 c -3.722622,2.571736 -5.113604,6.466389 -5.049378,10.840599 -1.580884,-0.09117 -2.599529,0.280691 -3.45281,0.801373 1.630926,-0.03086 3.774481,0.02097 5.008531,0.535815 -1.1726,-3.838776 0.598289,-8.653203 3.493657,-12.177787 z"
       id="path4-6"
       sodipodi:nodetypes="ccccc" /></g></svg>
